<svg width="24" height="20" viewBox="0 0 24 20" fill="none" xmlns="http://www.w3.org/2000/svg">
<path d="M5.31806 1H18.5589C20.7291 1 22.4769 2.74581 22.4769 4.88538V15.1146C22.4769 17.2542 20.7291 19 18.5589 19H5.31806C3.1479 19 1.40002 17.2542 1.40002 15.1146V4.88538C1.40002 2.74581 3.1479 1 5.31806 1Z" stroke="#999999" stroke-width="2" stroke-linecap="round" stroke-linejoin="round"/>
<mask id="path-2-inside-1" fill="white">
<path d="M21.9638 1.50317L17.9537 7.32054C17.3241 8.15248 16.5082 8.82738 15.5705 9.2918C14.6328 9.75621 13.5992 9.99739 12.5514 9.99622H11.3257C10.2786 9.99535 9.24602 9.75245 8.30971 9.28676C7.3734 8.82106 6.55902 8.14533 5.93099 7.31302L1.91333 1.50317"/>
</mask>
<path d="M23.6105 2.63828C24.2374 1.72884 24.0083 0.4834 23.0989 -0.143501C22.1894 -0.770402 20.944 -0.541364 20.3171 0.36807L23.6105 2.63828ZM17.9537 7.32054L19.5485 8.52744C19.5663 8.50389 19.5836 8.47995 19.6004 8.45564L17.9537 7.32054ZM12.5514 9.99622L12.5536 7.99622H12.5514V9.99622ZM11.3257 9.99622L11.324 11.9962H11.3257V9.99622ZM5.93099 7.31302L4.286 8.45057C4.3017 8.47327 4.31787 8.49565 4.3345 8.51769L5.93099 7.31302ZM3.55832 0.365624C2.93007 -0.542877 1.68428 -0.770064 0.77578 -0.141813C-0.132721 0.486439 -0.359908 1.73222 0.268344 2.64072L3.55832 0.365624ZM20.3171 0.36807L16.307 6.18543L19.6004 8.45564L23.6105 2.63828L20.3171 0.36807ZM16.3589 6.11363C15.917 6.69753 15.3434 7.17238 14.6828 7.49958L16.4582 11.084C17.6729 10.4824 18.7312 9.60743 19.5485 8.52744L16.3589 6.11363ZM14.6828 7.49958C14.0222 7.8268 13.2931 7.99705 12.5536 7.99622L12.5492 11.9962C13.9052 11.9977 15.2435 11.6856 16.4582 11.084L14.6828 7.49958ZM12.5514 7.99622H11.3257V11.9962H12.5514V7.99622ZM11.3274 7.99622C10.5883 7.9956 9.86008 7.82415 9.20038 7.49603L7.41904 11.0775C8.63196 11.6808 9.96882 11.9951 11.324 11.9962L11.3274 7.99622ZM9.20038 7.49603C8.54073 7.16793 7.96826 6.6925 7.52748 6.10835L4.3345 8.51769C5.14979 9.59815 6.20607 10.4742 7.41904 11.0775L9.20038 7.49603ZM7.57597 6.17547L3.55832 0.365624L0.268344 2.64072L4.286 8.45057L7.57597 6.17547Z" fill="#999999" mask="url(#path-2-inside-1)"/>
</svg>
