<svg width="23" height="22" viewBox="0 0 23 22" fill="none" xmlns="http://www.w3.org/2000/svg">
<path d="M2.10371 7.12633C2.49811 6.72657 3.01381 6.48276 3.55978 6.42968C3.63256 6.44654 3.70839 6.45545 3.7863 6.45545H19.0137H19.0137C19.6379 6.45541 20.2395 6.70482 20.6873 7.15387L21.3884 6.45475L20.6873 7.15388C21.1345 7.60225 21.3919 8.21373 21.4 8.85684L21.3999 12.6877L21.4 12.6916C21.4042 13.783 21.1958 14.8642 20.787 15.873C20.3782 16.8818 19.7773 17.798 19.0193 18.5693C18.2614 19.3406 17.3614 19.9519 16.3713 20.3688C15.3813 20.7856 14.3203 21 13.249 21H9.55095C7.39359 21 5.32181 20.1314 3.79214 18.5809C2.26202 17.03 1.40002 14.9236 1.40002 12.7244V8.85108C1.40002 8.20164 1.65467 7.58148 2.10371 7.12633Z" stroke="#999999" stroke-width="2" stroke-linecap="round" stroke-linejoin="round"/>
<path d="M11.4001 12.188V14.4811" stroke="#999999" stroke-width="2" stroke-linecap="round" stroke-linejoin="round"/>
<path d="M4.4679 6.26328V4.42503C4.4679 3.51665 4.8239 2.64549 5.45759 2.00317C6.09128 1.36085 6.95075 1 7.84692 1H12.3136C12.831 0.999962 13.3414 1.12059 13.8054 1.35255" stroke="#999999" stroke-width="2" stroke-linecap="round" stroke-linejoin="round"/>
</svg>
