<svg width="140" height="140" viewBox="0 0 140 140" fill="none" xmlns="http://www.w3.org/2000/svg">
<path d="M70 0C56.1553 0 42.6216 4.10543 31.1101 11.7971C19.5987 19.4888 10.6266 30.4213 5.32846 43.2122C0.0303306 56.003 -1.3559 70.0776 1.34506 83.6563C4.04603 97.235 10.7129 109.708 20.5026 119.497C30.2922 129.287 42.765 135.954 56.3437 138.655C69.9224 141.356 83.997 139.97 96.7879 134.672C109.579 129.373 120.511 120.401 128.203 108.89C135.895 97.3784 140 83.8447 140 70C139.977 51.4418 132.595 33.6501 119.473 20.5275C106.35 7.4048 88.5582 0.022575 70 0ZM105.98 50.12L59.36 96.6933C58.6933 97.403 57.8043 97.864 56.84 98C56.5477 98.0566 56.251 98.0878 55.9534 98.0933C55.7008 98.1084 55.4477 98.0767 55.2067 98C54.2425 97.8639 53.3535 97.403 52.6867 96.6933L34.02 78.0733C33.5874 77.6416 33.2441 77.1288 33.0099 76.5643C32.7757 75.9997 32.6551 75.3945 32.6551 74.7833C32.6551 74.1721 32.7757 73.5669 33.0099 73.0024C33.2441 72.4378 33.5874 71.925 34.02 71.4933C34.9011 70.619 36.0921 70.1284 37.3334 70.1284C38.5746 70.1284 39.7656 70.619 40.6467 71.4933L56.0467 86.8933L99.3534 43.54C100.235 42.6658 101.425 42.1752 102.667 42.1752C103.908 42.1752 105.099 42.6658 105.98 43.54C106.413 43.9717 106.756 44.4845 106.99 45.0491C107.224 45.6136 107.345 46.2188 107.345 46.83C107.345 47.4412 107.224 48.0464 106.99 48.6109C106.756 49.1754 106.413 49.6883 105.98 50.12Z" fill="#27AE60"/>
</svg>
