<svg width="28" height="28" viewBox="0 0 28 28" fill="none" xmlns="http://www.w3.org/2000/svg">
<path fill-rule="evenodd" clip-rule="evenodd" d="M21.6154 22.5787V5.42132C21.6154 4.84429 21.1428 4.37497 20.5622 4.37497H7.43831C6.85723 4.37497 6.38461 4.84429 6.38461 5.42132V22.5787C6.38461 23.1557 6.85723 23.625 7.43831 23.625H20.5622C21.1428 23.625 21.6154 23.1557 21.6154 22.5787ZM20.5622 3C21.9062 3 23 4.08623 23 5.42132V22.5787C23 23.9138 21.9062 25 20.5622 25H7.43831C6.09385 25 5 23.9138 5 22.5787V5.42132C5 4.08623 6.09385 3 7.43831 3H20.5622ZM7.76918 22.0491H20.2307V9.67439H7.76918V22.0491ZM8.46153 7.35508H14C14.3826 7.35508 14.6923 7.04755 14.6923 6.6676C14.6923 6.28765 14.3826 5.98011 14 5.98011H8.46153C8.07892 5.98011 7.76923 6.28765 7.76923 6.6676C7.76923 7.04755 8.07892 7.35508 8.46153 7.35508Z" fill="#999999"/>
</svg>
